# Blender 4.3.1
# www.blender.org
o Cube.001
v -0.100000 -1.212800 0.935032
v -0.100000 1.212800 0.935032
v -0.100000 -1.212800 -0.935032
v -0.100000 1.212800 -0.935032
v 0.100000 -1.212800 0.935032
v 0.100000 1.212800 0.935032
v 0.100000 -1.212800 -0.935032
v 0.100000 1.212800 -0.935032
v -0.100000 -1.337988 -1.031549
v -0.100000 -1.337988 1.031549
v -0.100000 1.337988 1.031549
v -0.100000 1.337988 -1.031549
v 0.100000 1.337988 -1.031549
v 0.100000 -1.337988 -1.031549
v 0.100000 -1.337988 1.031549
v 0.100000 1.337988 1.031549
v -0.035293 -1.129526 -0.870831
v -0.035293 -1.129526 0.870831
v -0.035293 1.129526 0.870831
v -0.035293 1.129526 -0.870831
v 0.035293 1.129526 -0.870831
v 0.035293 -1.129526 -0.870831
v 0.035293 -1.129526 0.870831
v 0.035293 1.129526 0.870831
v -0.035293 -1.212800 -0.935032
v -0.035293 -1.212800 0.935032
v -0.035293 1.212800 0.935032
v -0.035293 1.212800 -0.935032
v 0.035293 1.212800 -0.935032
v 0.035293 -1.212800 -0.935032
v 0.035293 -1.212800 0.935032
v 0.035293 1.212800 0.935032
v -0.100000 -1.337988 -0.471556
v -0.100000 -1.337988 0.000000
v -0.100000 -1.337988 0.471556
v -0.100000 -0.611639 1.031549
v -0.100000 0.000000 1.031549
v -0.100000 0.611639 1.031549
v -0.100000 1.337988 0.471556
v -0.100000 1.337988 0.000000
v -0.100000 1.337988 -0.471556
v -0.100000 0.611639 -1.031549
v -0.100000 0.000000 -1.031549
v -0.100000 -0.611639 -1.031549
v 0.100000 0.611639 -1.031549
v 0.100000 0.000000 -1.031549
v 0.100000 -0.611639 -1.031549
v 0.100000 -1.337988 0.471556
v 0.100000 -1.337988 0.000000
v 0.100000 -1.337988 -0.471556
v 0.100000 1.337988 -0.471556
v 0.100000 1.337988 0.000000
v 0.100000 1.337988 0.471556
v 0.100000 0.611639 1.031549
v 0.100000 0.000000 1.031549
v 0.100000 -0.611639 1.031549
v -0.100000 -1.212800 -0.471556
v -0.100000 -1.212800 0.000000
v -0.100000 -1.212800 0.471556
v -0.100000 -0.611639 0.935032
v -0.100000 0.000000 0.935032
v -0.100000 0.611639 0.935032
v -0.100000 1.212800 0.471556
v -0.100000 1.212800 0.000000
v -0.100000 1.212800 -0.471556
v -0.100000 0.611639 -0.935032
v -0.100000 0.000000 -0.935032
v -0.100000 -0.611639 -0.935032
v 0.100000 0.611639 -0.935032
v 0.100000 0.000000 -0.935032
v 0.100000 -0.611639 -0.935032
v 0.100000 -1.212800 0.471556
v 0.100000 -1.212800 0.000000
v 0.100000 -1.212800 -0.471556
v 0.100000 1.212800 -0.471556
v 0.100000 1.212800 0.000000
v 0.100000 1.212800 0.471556
v 0.100000 0.611639 0.935032
v 0.100000 0.000000 0.935032
v 0.100000 -0.611639 0.935032
v -0.035293 -1.212800 -0.471556
v -0.035293 -1.212800 0.000000
v -0.035293 -1.212800 0.471556
v -0.035293 -0.611639 0.935032
v -0.035293 0.000000 0.935032
v -0.035293 0.611639 0.935032
v -0.035293 1.212800 0.471556
v -0.035293 1.212800 0.000000
v -0.035293 1.212800 -0.471556
v -0.035293 0.611639 -0.935032
v -0.035293 0.000000 -0.935032
v -0.035293 -0.611639 -0.935032
v 0.035293 0.611639 -0.935032
v 0.035293 0.000000 -0.935032
v 0.035293 -0.611639 -0.935032
v 0.035293 -1.212800 0.471556
v 0.035293 -1.212800 0.000000
v 0.035293 -1.212800 -0.471556
v 0.035293 1.212800 -0.471556
v 0.035293 1.212800 0.000000
v 0.035293 1.212800 0.471556
v 0.035293 0.611639 0.935032
v 0.035293 0.000000 0.935032
v 0.035293 -0.611639 0.935032
v -0.035293 -1.129526 -0.471556
v -0.035293 -1.129526 0.000000
v -0.035293 -1.129526 0.471556
v -0.035293 -0.611639 0.870831
v -0.035293 0.000000 0.870831
v -0.035293 0.611639 0.870831
v -0.035293 1.129526 0.471556
v -0.035293 1.129526 0.000000
v -0.035293 1.129526 -0.471556
v -0.035293 0.611639 -0.870831
v -0.035293 0.000000 -0.870831
v -0.035293 -0.611639 -0.870831
v 0.035293 0.611639 -0.870831
v 0.035293 0.000000 -0.870831
v 0.035293 -0.611639 -0.870831
v 0.035293 -1.129526 0.471556
v 0.035293 -1.129526 0.000000
v 0.035293 -1.129526 -0.471556
v 0.035293 1.129526 -0.471556
v 0.035293 1.129526 0.000000
v 0.035293 1.129526 0.471556
v 0.035293 0.611639 0.870831
v 0.035293 0.000000 0.870831
v 0.035293 -0.611639 0.870831
v 0.000000 -1.337988 -1.031549
v 0.000000 1.337988 -1.031549
v 0.000000 -1.337988 1.031549
v 0.000000 1.337988 1.031549
v 0.000000 -0.611639 -1.031549
v 0.000000 0.000000 -1.031549
v 0.000000 0.611639 -1.031549
v 0.000000 -0.611639 1.031549
v 0.000000 0.000000 1.031549
v 0.000000 0.611639 1.031549
v 0.000000 -1.337988 0.471556
v 0.000000 -1.337988 0.000000
v 0.000000 -1.337988 -0.471556
v 0.000000 1.337988 0.471556
v 0.000000 1.337988 0.000000
v 0.000000 1.337988 -0.471556
v 0.000000 -1.129526 -0.870831
v 0.000000 1.129526 -0.870831
v 0.000000 1.129526 0.870831
v 0.000000 -1.129526 0.870831
v 0.000000 1.129526 -0.471556
v 0.000000 1.129526 0.000000
v 0.000000 1.129526 0.471556
v 0.000000 -0.611639 -0.870831
v 0.000000 0.000000 -0.870831
v 0.000000 0.611639 -0.870831
v 0.000000 0.611639 0.870831
v 0.000000 0.000000 0.870831
v 0.000000 -0.611639 0.870831
v 0.000000 -1.129526 0.471556
v 0.000000 -1.129526 0.000000
v 0.000000 -1.129526 -0.471556
v 0.035293 1.171163 -0.902931
v 0.035293 -1.171163 -0.902931
v 0.035293 -1.171163 0.902931
v 0.035293 1.171163 0.902931
v 0.035293 0.611639 -0.902931
v 0.035293 0.000000 -0.902931
v 0.035293 -0.611639 -0.902931
v 0.035293 -1.171163 -0.471556
v 0.035293 -1.171163 0.000000
v 0.035293 -1.171163 0.471556
v 0.035293 1.171163 0.471556
v 0.035293 1.171163 0.000000
v 0.035293 1.171163 -0.471556
v 0.035293 -0.611639 0.902931
v 0.035293 0.000000 0.902931
v 0.035293 0.611639 0.902931
v 0.100000 1.275394 -0.983290
v 0.100000 -1.275394 -0.983290
v 0.100000 -1.275394 0.983290
v 0.100000 1.275394 0.983290
v 0.100000 0.611639 -0.983290
v 0.100000 0.000000 -0.983290
v 0.100000 -0.611639 -0.983290
v 0.100000 -1.275394 -0.471556
v 0.100000 -1.275394 0.000000
v 0.100000 -1.275394 0.471556
v 0.100000 1.275394 0.471556
v 0.100000 1.275394 0.000000
v 0.100000 1.275394 -0.471556
v 0.100000 -0.611639 0.983290
v 0.100000 0.000000 0.983290
v 0.100000 0.611639 0.983290
vn -0.0000 -0.0000 1.0000
vn -0.0000 -0.0000 -1.0000
vn -0.0000 -1.0000 -0.0000
vn -0.0000 1.0000 -0.0000
vn -1.0000 -0.0000 -0.0000
vn 1.0000 -0.0000 -0.0000
vt 0.594138 0.592982
vt 0.594138 0.394186
vt 0.615169 0.394186
vt 0.615169 0.592982
vt 0.615169 0.000000
vt 0.615169 0.195390
vt 0.594138 0.195390
vt 0.594138 0.000000
vt 0.615169 0.788372
vt 0.594138 0.788372
vt 0.032502 0.633671
vt 0.032502 0.434875
vt 0.065004 0.434875
vt 0.065004 0.633671
vt 0.032502 0.000000
vt 0.065004 0.000000
vt 0.065004 0.236079
vt 0.032502 0.236079
vt 0.032502 0.869750
vt 0.000000 0.869750
vt 0.000000 0.633671
vt 0.915876 0.457171
vt 0.915876 0.303905
vt 0.936907 0.303905
vt 0.936907 0.457171
vt 0.915876 0.000000
vt 0.936907 0.000000
vt 0.936907 0.150640
vt 0.915876 0.150640
vt 0.936907 0.607811
vt 0.915876 0.607811
vt 0.097506 0.633671
vt 0.097506 0.434875
vt 0.130009 0.434875
vt 0.130009 0.633671
vt 0.097506 0.000000
vt 0.130009 0.000000
vt 0.130009 0.236079
vt 0.097506 0.236079
vt 0.097506 0.869750
vt 0.065004 0.869750
vt 0.162511 0.488541
vt 0.130009 0.488541
vt 0.130009 0.335275
vt 0.162511 0.335275
vt 0.130009 0.182010
vt 0.162511 0.182010
vt 0.162511 0.670551
vt 0.195013 0.488541
vt 0.195013 0.670551
vt 0.162511 0.000000
vt 0.195013 0.000000
vt 0.195013 0.182010
vt 0.227515 0.488541
vt 0.195013 0.488541
vt 0.195013 0.335275
vt 0.227515 0.335275
vt 0.195013 0.182010
vt 0.227515 0.182010
vt 0.227515 0.670551
vt 0.260017 0.488541
vt 0.260017 0.670551
vt 0.227515 0.000000
vt 0.260017 0.000000
vt 0.260017 0.182010
vt 0.260017 0.488541
vt 0.260017 0.335275
vt 0.300706 0.335275
vt 0.300706 0.488541
vt 0.260017 0.031370
vt 0.300706 -0.000000
vt 0.300706 0.182010
vt 0.260017 0.182010
vt 0.300706 0.670551
vt 0.260017 0.639181
vt 0.454143 0.236079
vt 0.454143 0.434875
vt 0.422773 0.434875
vt 0.422773 0.236079
vt 0.422773 0.869750
vt 0.422773 0.633671
vt 0.454143 0.633671
vt 0.454143 0.829061
vt 0.422773 0.000000
vt 0.454143 0.040689
vt 0.341395 0.182010
vt 0.341395 0.335275
vt 0.300706 0.335275
vt 0.300706 0.182010
vt 0.300706 0.670551
vt 0.300706 0.488541
vt 0.341395 0.488541
vt 0.341395 0.639181
vt 0.300706 0.000000
vt 0.341395 0.031370
vt 0.454143 0.633671
vt 0.454143 0.434875
vt 0.485513 0.434875
vt 0.485513 0.633671
vt 0.485513 0.000000
vt 0.485513 0.236079
vt 0.454143 0.236079
vt 0.454143 0.040689
vt 0.485513 0.869750
vt 0.454143 0.829061
vt 0.501198 0.236079
vt 0.501198 0.434875
vt 0.485513 0.434875
vt 0.485513 0.236079
vt 0.501198 0.849405
vt 0.485513 0.869750
vt 0.485513 0.633671
vt 0.501198 0.633671
vt 0.501198 0.020344
vt 0.516883 0.040689
vt 0.516883 0.236079
vt 0.361740 0.488541
vt 0.361740 0.335275
vt 0.382084 0.335275
vt 0.382084 0.488541
vt 0.361740 0.015685
vt 0.382084 -0.000000
vt 0.382084 0.182010
vt 0.361740 0.182010
vt 0.361740 0.654866
vt 0.341395 0.639181
vt 0.341395 0.488541
vt 0.402429 0.182010
vt 0.402429 0.335275
vt 0.382084 0.335275
vt 0.402429 0.654866
vt 0.402429 0.488541
vt 0.422773 0.488541
vt 0.422773 0.639181
vt 0.382084 0.488541
vt 0.402429 0.015685
vt 0.422773 0.031370
vt 0.422773 0.182010
vt 0.532568 0.633671
vt 0.532568 0.434875
vt 0.548253 0.434875
vt 0.548253 0.633671
vt 0.532568 0.020344
vt 0.532568 0.236079
vt 0.516883 0.040689
vt 0.548253 0.236079
vt 0.532568 0.849405
vt 0.516883 0.829061
vt 0.516883 0.633671
vt 0.881463 0.436304
vt 0.881463 0.283039
vt 0.892934 0.283039
vt 0.892934 0.436304
vt 0.881463 0.000000
vt 0.892934 0.000000
vt 0.892934 0.129773
vt 0.881463 0.129773
vt 0.881463 0.566077
vt 0.869991 0.566077
vt 0.869991 0.436304
vt 0.559724 0.565916
vt 0.559724 0.367120
vt 0.571195 0.367120
vt 0.571195 0.565916
vt 0.559724 0.000000
vt 0.571195 0.000000
vt 0.571195 0.168324
vt 0.559724 0.168324
vt 0.559724 0.734241
vt 0.548253 0.734241
vt 0.548253 0.565916
vt 0.957938 0.150640
vt 0.957938 0.303905
vt 0.936907 0.303905
vt 0.936907 0.150640
vt 0.957938 0.607811
vt 0.936907 0.607811
vt 0.936907 0.457171
vt 0.957938 0.457171
vt 0.936907 0.000000
vt 0.957938 0.000000
vt 0.978969 0.303905
vt 0.978969 0.457171
vt 0.978969 0.000000
vt 0.978969 0.150640
vt 0.978969 0.607811
vt 0.636200 0.195390
vt 0.636200 0.394186
vt 0.636200 0.788372
vt 0.636200 0.592982
vt 0.636200 0.000000
vt 1.000000 0.150640
vt 1.000000 0.303905
vt 1.000000 0.457171
vt 1.000000 0.607811
vt 1.000000 0.000000
vt 0.657231 0.195390
vt 0.657231 0.394186
vt 0.657231 0.592982
vt 0.657231 0.788372
vt 0.657231 0.000000
vt 0.657231 0.592982
vt 0.657231 0.394186
vt 0.678262 0.394186
vt 0.678262 0.592982
vt 0.678262 0.000000
vt 0.678262 0.195390
vt 0.657231 0.195390
vt 0.657231 0.000000
vt 0.678262 0.788372
vt 0.657231 0.788372
vt 0.678262 0.457171
vt 0.678262 0.303905
vt 0.705327 0.303905
vt 0.705327 0.457171
vt 0.678262 0.020867
vt 0.705327 -0.000000
vt 0.705327 0.150640
vt 0.678262 0.150640
vt 0.705327 0.607811
vt 0.678262 0.586944
vt 0.807391 0.195390
vt 0.807391 0.394186
vt 0.786524 0.394186
vt 0.786524 0.195390
vt 0.786524 0.788372
vt 0.786524 0.592982
vt 0.807391 0.592982
vt 0.807391 0.761306
vt 0.786524 0.000000
vt 0.807391 0.027066
vt 0.732393 0.150640
vt 0.732393 0.303905
vt 0.705327 0.150640
vt 0.705327 0.607811
vt 0.705327 0.457171
vt 0.732393 0.457171
vt 0.732393 0.586944
vt 0.705327 0.000000
vt 0.732393 0.020867
vt 0.807391 0.592982
vt 0.807391 0.394186
vt 0.828258 0.394186
vt 0.828258 0.592982
vt 0.828258 0.000000
vt 0.828258 0.195390
vt 0.807391 0.195390
vt 0.807391 0.027066
vt 0.828258 0.788372
vt 0.807391 0.761306
vt 0.838691 0.195390
vt 0.838691 0.394186
vt 0.828258 0.394186
vt 0.828258 0.195390
vt 0.838691 0.774839
vt 0.828258 0.788372
vt 0.828258 0.592982
vt 0.838691 0.592982
vt 0.838691 0.013533
vt 0.849125 0.027066
vt 0.849125 0.195390
vt 0.745926 0.457171
vt 0.745926 0.303905
vt 0.759459 0.303905
vt 0.759459 0.457171
vt 0.745926 0.010433
vt 0.759459 -0.000000
vt 0.759459 0.150640
vt 0.745926 0.150640
vt 0.745926 0.597377
vt 0.732393 0.586944
vt 0.732393 0.457171
vt 0.772991 0.150640
vt 0.772991 0.303905
vt 0.759459 0.150640
vt 0.772991 0.597377
vt 0.772991 0.457171
vt 0.786524 0.457171
vt 0.786524 0.586944
vt 0.772991 0.010433
vt 0.786524 0.020867
vt 0.786524 0.150640
vt 0.859558 0.592982
vt 0.859558 0.394186
vt 0.869991 0.394186
vt 0.869991 0.592982
vt 0.859558 0.013533
vt 0.859558 0.195390
vt 0.849125 0.195390
vt 0.849125 0.027066
vt 0.869991 0.195390
vt 0.859558 0.774839
vt 0.849125 0.761306
vt 0.849125 0.592982
vt 0.582666 0.168324
vt 0.582666 0.367120
vt 0.582666 0.734241
vt 0.571195 0.734241
vt 0.582666 0.565916
vt 0.582666 0.000000
vt 0.594138 0.168324
vt 0.904405 0.129773
vt 0.904405 0.283039
vt 0.904405 0.566077
vt 0.904405 0.436304
vt 0.915876 0.436304
vt 0.915876 0.566077
vt 0.904405 0.000000
vt 0.915876 0.000000
vt 0.915876 0.129773
vt 0.195013 0.000000
vt 0.195013 0.670551
vt 0.260017 0.335275
vt 0.130009 0.000000
vt 0.130009 0.670551
vt 0.195013 0.335275
vt 0.130009 0.869750
vt 0.000000 0.434875
vt 0.000000 0.236079
vt 0.000000 0.000000
vt 0.915876 0.283039
vt 0.892934 0.566077
vt 0.594138 0.367120
vt 0.594138 0.565916
vt 0.594138 0.734241
vt 0.548253 0.367120
vt 0.548253 0.168324
vt 0.548253 0.000000
vt 0.869991 0.283039
vt 0.869991 0.129773
vt 0.869991 0.000000
vt 0.869991 0.788372
vt 0.849125 0.394186
vt 0.759459 0.000000
vt 0.786524 0.303905
vt 0.759458 0.607811
vt 0.759459 0.607811
vt 0.732393 0.303905
vt 0.732393 0.150640
vt 0.732393 0.020867
vt 0.828258 0.000000
vt 0.849125 0.394186
vt 0.849125 0.592982
vt 0.849125 0.761306
vt 0.548253 0.869750
vt 0.516883 0.434875
vt 0.382084 -0.000000
vt 0.422773 0.335275
vt 0.382084 0.670551
vt 0.382084 0.670551
vt 0.341395 0.335275
vt 0.341395 0.182010
vt 0.341395 0.031370
vt 0.485513 0.000000
vt 0.516883 0.434875
vt 0.516883 0.829061
s 0
f 71/1/1 70/2/1 94/3/1 95/4/1
f 29/5/1 93/6/1 69/7/1 8/8/1
f 70/2/1 69/7/1 93/6/1 94/3/1
f 95/4/1 30/9/1 7/10/1 71/1/1
f 133/11/2 134/12/2 46/13/2 47/14/2
f 130/15/2 13/16/2 45/17/2 135/18/2
f 134/12/2 135/18/2 45/17/2 46/13/2
f 133/11/2 129/19/2 9/20/2 44/21/2
f 75/22/3 76/23/3 100/24/3 99/25/3
f 6/26/3 32/27/3 101/28/3 77/29/3
f 76/23/3 77/29/3 101/28/3 100/24/3
f 99/25/3 29/30/3 8/31/3 75/22/3
f 136/32/1 137/33/1 37/34/1 36/35/1
f 132/36/1 11/37/1 38/38/1 138/39/1
f 137/33/1 138/39/1 38/38/1 37/34/1
f 136/32/1 131/40/1 15/41/1 56/14/1
f 141/42/3 50/43/3 49/44/3 140/45/3
f 140/45/3 49/44/3 48/46/3 139/47/3
f 129/48/3 141/42/3 33/49/3 9/50/3
f 139/47/3 131/51/3 10/52/3 35/53/3
f 144/54/4 41/55/4 40/56/4 143/57/4
f 143/57/4 40/56/4 39/58/4 142/59/4
f 130/60/4 144/54/4 51/61/4 13/62/4
f 142/59/4 132/63/4 16/64/4 53/65/4
f 59/66/5 58/67/5 34/68/5 35/69/5
f 3/70/5 9/71/5 33/72/5 57/73/5
f 58/67/5 57/73/5 33/72/5 34/68/5
f 35/69/5 10/74/5 1/75/5 59/66/5
f 62/76/5 61/77/5 37/78/5 38/79/5
f 10/80/5 36/81/5 60/82/5 1/83/5
f 61/77/5 60/82/5 36/81/5 37/78/5
f 38/79/5 11/84/5 2/85/5 62/76/5
f 65/86/5 64/87/5 40/88/5 41/89/5
f 11/90/5 39/91/5 63/92/5 2/93/5
f 64/87/5 63/92/5 39/91/5 40/88/5
f 41/89/5 12/94/5 4/95/5 65/86/5
f 68/96/5 67/97/5 43/98/5 44/99/5
f 12/100/5 42/101/5 66/102/5 4/103/5
f 67/97/5 66/102/5 42/101/5 43/98/5
f 44/99/5 9/104/5 3/105/5 68/96/5
f 181/106/6 182/107/6 46/108/6 45/109/6
f 178/110/6 14/111/6 47/112/6 183/113/6
f 182/107/6 183/113/6 47/112/6 46/108/6
f 181/106/6 177/114/6 8/115/6 69/116/6
f 184/117/6 185/118/6 49/119/6 50/120/6
f 179/121/6 15/122/6 48/123/6 186/124/6
f 185/118/6 186/124/6 48/123/6 49/119/6
f 184/117/6 178/125/6 7/126/6 74/127/6
f 187/128/6 188/129/6 52/130/6 53/123/6
f 177/131/6 189/132/6 75/133/6 8/134/6
f 188/129/6 189/132/6 51/135/6 52/130/6
f 187/128/6 180/136/6 6/137/6 77/138/6
f 190/139/6 191/140/6 55/141/6 56/142/6
f 180/143/6 192/144/6 78/116/6 6/145/6
f 191/140/6 192/144/6 54/146/6 55/141/6
f 190/139/6 179/147/6 5/148/6 80/149/6
f 149/150/3 150/151/3 112/152/3 113/153/3
f 147/154/3 19/155/3 111/156/3 151/157/3
f 150/151/3 151/157/3 111/156/3 112/152/3
f 149/150/3 146/158/3 21/159/3 123/160/3
f 152/161/1 153/162/1 115/163/1 116/164/1
f 146/165/1 20/166/1 114/167/1 154/168/1
f 153/162/1 154/168/1 114/167/1 115/163/1
f 152/161/1 145/169/1 22/170/1 119/171/1
f 63/172/3 64/173/3 88/174/3 87/175/3
f 4/176/3 28/177/3 89/178/3 65/179/3
f 64/173/3 65/179/3 89/178/3 88/174/3
f 87/175/3 27/180/3 2/181/3 63/172/3
f 57/179/4 58/173/4 82/182/4 81/183/4
f 1/181/4 26/184/4 83/185/4 59/172/4
f 58/173/4 59/172/4 83/185/4 82/182/4
f 81/183/4 25/186/4 3/176/4 57/179/4
f 78/187/2 79/188/2 103/3/2 102/6/2
f 5/189/2 31/9/2 104/4/2 80/190/2
f 79/188/2 80/190/2 104/4/2 103/3/2
f 102/6/2 32/5/2 6/191/2 78/187/2
f 72/192/4 73/193/4 97/182/4 96/185/4
f 30/186/4 98/183/4 74/194/4 7/195/4
f 73/193/4 74/194/4 98/183/4 97/182/4
f 96/185/4 31/184/4 5/196/4 72/192/4
f 66/197/1 67/198/1 91/188/1 90/187/1
f 25/189/1 92/190/1 68/199/1 3/200/1
f 67/198/1 68/199/1 92/190/1 91/188/1
f 90/187/1 28/191/1 4/201/1 66/197/1
f 60/202/2 61/203/2 85/204/2 84/205/2
f 27/206/2 86/207/2 62/208/2 2/209/2
f 61/203/2 62/208/2 86/207/2 85/204/2
f 84/205/2 26/210/2 1/211/2 60/202/2
f 107/212/5 106/213/5 82/214/5 83/215/5
f 17/216/5 25/217/5 81/218/5 105/219/5
f 106/213/5 105/219/5 81/218/5 82/214/5
f 83/215/5 26/220/5 18/221/5 107/212/5
f 110/222/5 109/223/5 85/224/5 86/225/5
f 26/226/5 84/227/5 108/228/5 18/229/5
f 109/223/5 108/228/5 84/227/5 85/224/5
f 86/225/5 27/230/5 19/231/5 110/222/5
f 113/232/5 112/233/5 88/214/5 89/234/5
f 27/235/5 87/236/5 111/237/5 19/238/5
f 112/233/5 111/237/5 87/236/5 88/214/5
f 89/234/5 28/239/5 20/240/5 113/232/5
f 116/241/5 115/242/5 91/243/5 92/244/5
f 28/245/5 90/246/5 114/247/5 20/248/5
f 115/242/5 114/247/5 90/246/5 91/243/5
f 92/244/5 25/249/5 17/250/5 116/241/5
f 165/251/6 166/252/6 94/253/6 93/254/6
f 162/255/6 30/256/6 95/257/6 167/258/6
f 166/252/6 167/258/6 95/257/6 94/253/6
f 165/251/6 161/259/6 21/260/6 117/261/6
f 168/262/6 169/263/6 97/264/6 98/265/6
f 163/266/6 31/267/6 96/268/6 170/269/6
f 169/263/6 170/269/6 96/268/6 97/264/6
f 168/262/6 162/270/6 22/271/6 122/272/6
f 171/273/6 172/274/6 100/264/6 101/275/6
f 161/276/6 173/277/6 123/278/6 21/279/6
f 172/274/6 173/277/6 99/265/6 100/264/6
f 171/273/6 164/280/6 24/281/6 125/282/6
f 174/283/6 175/284/6 103/285/6 104/286/6
f 164/287/6 176/288/6 126/289/6 24/290/6
f 175/284/6 176/288/6 102/291/6 103/285/6
f 174/283/6 163/292/6 23/293/6 128/294/6
f 155/295/2 156/296/2 109/163/2 110/167/2
f 148/297/2 18/298/2 108/164/2 157/299/2
f 156/296/2 157/299/2 108/164/2 109/163/2
f 155/295/2 147/300/2 24/8/2 126/301/2
f 158/302/4 159/303/4 106/152/4 107/156/4
f 145/304/4 160/305/4 122/306/4 22/307/4
f 159/303/4 160/305/4 105/153/4 106/152/4
f 158/302/4 148/308/4 23/309/4 120/310/4
f 39/58/4 11/311/4 132/63/4 142/59/4
f 12/312/4 41/55/4 144/54/4 130/60/4
f 52/313/4 143/57/4 142/59/4 53/65/4
f 51/61/4 144/54/4 143/57/4 52/313/4
f 48/46/3 15/314/3 131/51/3 139/47/3
f 14/315/3 50/43/3 141/42/3 129/48/3
f 34/316/3 140/45/3 139/47/3 35/53/3
f 33/49/3 141/42/3 140/45/3 34/316/3
f 36/35/1 10/317/1 131/40/1 136/32/1
f 55/13/1 54/17/1 138/39/1 137/33/1
f 16/16/1 132/36/1 138/39/1 54/17/1
f 56/14/1 55/13/1 137/33/1 136/32/1
f 47/14/2 14/41/2 129/19/2 133/11/2
f 43/318/2 42/319/2 135/18/2 134/12/2
f 12/320/2 130/15/2 135/18/2 42/319/2
f 44/21/2 43/318/2 134/12/2 133/11/2
f 107/156/4 18/155/4 148/308/4 158/302/4
f 121/321/4 122/306/4 160/305/4 159/303/4
f 17/322/4 105/153/4 160/305/4 145/304/4
f 120/310/4 121/321/4 159/303/4 158/302/4
f 110/167/2 19/166/2 147/300/2 155/295/2
f 127/323/2 128/324/2 157/299/2 156/296/2
f 23/325/2 148/297/2 157/299/2 128/324/2
f 126/301/2 127/323/2 156/296/2 155/295/2
f 116/164/1 17/298/1 145/169/1 152/161/1
f 118/326/1 117/327/1 154/168/1 153/162/1
f 21/328/1 146/165/1 154/168/1 117/327/1
f 119/171/1 118/326/1 153/162/1 152/161/1
f 113/153/3 20/322/3 146/158/3 149/150/3
f 124/329/3 125/330/3 151/157/3 150/151/3
f 24/331/3 147/154/3 151/157/3 125/330/3
f 123/160/3 124/329/3 150/151/3 149/150/3
f 104/286/6 31/332/6 163/292/6 174/283/6
f 127/333/6 126/289/6 176/288/6 175/284/6
f 32/331/6 102/291/6 176/288/6 164/287/6
f 128/294/6 127/333/6 175/284/6 174/283/6
f 101/275/6 32/334/6 164/280/6 171/273/6
f 124/335/6 123/278/6 173/277/6 172/274/6
f 29/336/6 99/265/6 173/277/6 161/276/6
f 125/282/6 124/335/6 172/274/6 171/273/6
f 98/265/6 30/337/6 162/270/6 168/262/6
f 121/338/6 120/339/6 170/269/6 169/263/6
f 23/340/6 163/266/6 170/269/6 120/339/6
f 122/272/6 121/338/6 169/263/6 168/262/6
f 93/254/6 29/341/6 161/259/6 165/251/6
f 118/342/6 119/343/6 167/258/6 166/252/6
f 22/344/6 162/255/6 167/258/6 119/343/6
f 117/261/6 118/342/6 166/252/6 165/251/6
f 56/142/6 15/345/6 179/147/6 190/139/6
f 79/346/6 78/116/6 192/144/6 191/140/6
f 16/328/6 54/146/6 192/144/6 180/143/6
f 80/149/6 79/346/6 191/140/6 190/139/6
f 53/123/6 16/347/6 180/136/6 187/128/6
f 76/348/6 75/133/6 189/132/6 188/129/6
f 13/349/6 51/135/6 189/132/6 177/131/6
f 77/138/6 76/348/6 188/129/6 187/128/6
f 50/120/6 14/350/6 178/125/6 184/117/6
f 73/351/6 72/352/6 186/124/6 185/118/6
f 5/353/6 179/121/6 186/124/6 72/352/6
f 74/127/6 73/351/6 185/118/6 184/117/6
f 45/109/6 13/354/6 177/114/6 181/106/6
f 70/355/6 71/149/6 183/113/6 182/107/6
f 7/356/6 178/110/6 183/113/6 71/149/6
f 69/116/6 70/355/6 182/107/6 181/106/6
